#!OML:ASF E:\motion texture\Top Level 1\Subject 1\Session 1\male.ASF
:FULLY-SPECIFIED
:DEGREES
283
root -5.96344 17.8239 4.88434 443.454 -85.3284 -438.29
lowerback 0.333627 2.69081 2.76808
upperback -0.700775 3.60345 1.61211
thorax -0.838183 1.77986 0.0681736
lowerneck -12.3088 4.33781 1.29882
upperneck 16.9726 3.9638 8.1506
head 7.09492 2.64768 2.80782
rclavicle -7.15625e-015 -2.5345e-014
rhumerus -30.4413 -15.2394 -68.2389
rradius 26.0728
rwrist 9.00304
rhand -14.0204 -24.1587
rfingers 7.12502
rthumb 12.1094 -53.7883
lclavicle -7.15625e-015 -2.5345e-014
lhumerus -51.3911 16.5709 82.4081
lradius 18.7615
lwrist -30.6264
lhand 18.1954 10.3911
lfingers 7.12502
lthumb 42.8504 34.6896
rfemur -10.6315 -6.85767 24.3752
rtibia 57.5986
rfoot 11.001 -25.9089
rtoes 11.21
lfemur -22.4602 -1.73911 -14.0669
ltibia 27.1331
lfoot -7.61118 -0.000569482
ltoes -2.35234
284
root -6.11209 17.8355 4.89889 440.625 -85.3665 -435.6
lowerback 0.411645 2.64521 2.7137
upperback -0.729704 3.54653 1.62339
thorax -0.916583 1.75087 0.105313
lowerneck -12.3041 4.38285 1.30531
upperneck 17.2143 4.04406 7.96404
head 7.17317 2.67491 2.76042
rclavicle 1.81391e-015 1.21259e-014
rhumerus -30.6193 -16.47 -67.7148
rradius 24.6458
rwrist 10.5503
rhand -13.7031 -23.9052
rfingers 7.12502
rthumb 12.4154 -53.5164
lclavicle 1.81391e-015 1.21259e-014
lhumerus -50.7475 16.5959 81.5314
lradius 18.465
lwrist -31.3751
lhand 15.5336 10.6781
lfingers 7.12502
lthumb 40.3537 35.7964
rfemur -11.6953 -7.62053 24.2666
rtibia 59.0595
rfoot 10.1145 -26.5503
rtoes 12.121
lfemur -21.601 -1.87872 -14.2907
ltibia 26.8577
lfoot -8.00793 -0.0711286
ltoes -2.6848
285
root -6.25909 17.8484 4.9131 437.913 -85.3691 -433.012
lowerback 0.46789 2.60492 2.69299
upperback -0.758173 3.49575 1.64743
thorax -0.9809 1.72479 0.13807
lowerneck -12.319 4.40532 1.31067
upperneck 17.4792 4.09261 7.77296
head 7.26411 2.68666 2.71004
rclavicle -1.09766e-014 1.92821e-014
rhumerus -30.8331 -17.8351 -67.0974
rradius 23.2787
rwrist 12.2461
rhand -13.449 -23.6803
rfingers 7.12502
rthumb 12.6604 -53.2766
lclavicle -1.09766e-014 1.92821e-014
lhumerus -50.0528 16.868 80.4244
lradius 18.0289
lwrist -32.6606
lhand 12.4746 10.8171
lfingers 7.12502
lthumb 37.4694 36.7587
rfemur -12.7818 -8.32934 24.2042
rtibia 60.359
rfoot 9.22888 -26.9464
rtoes 12.9208
lfemur -20.7356 -2.04522 -14.4736
ltibia 26.5337
lfoot -8.37385 -0.108426
ltoes -3.01951
286
root -6.40461 17.8622 4.92703 435.446 -85.3649 -430.644
lowerback 0.493553 2.57142 2.6797
upperback -0.786746 3.45276 1.67586
thorax -1.02783 1.7027 0.172759
lowerneck -12.3647 4.40512 1.30607
upperneck 17.7766 4.10695 7.5933
head 7.37221 2.6828 2.66359
rclavicle -5.69207e-014 6.36111e-015
rhumerus -31.0868 -19.3127 -66.3943
rradius 21.9901
rwrist 14.0465
rhand -13.2411 -23.5123
rfingers 7.12502
rthumb 12.8608 -53.096
lclavicle -5.69207e-014 6.36111e-015
lhumerus -49.3026 17.3976 79.1181
lradius 17.524
lwrist -34.1348
lhand 9.38162 11.1605
lfingers 7.12502
lthumb 34.5396 37.8229
rfemur -13.9001 -8.9639 24.1586
rtibia 61.4968
rfoot 8.43159 -27.0893
rtoes 13.4731
lfemur -19.8739 -2.23254 -14.6444
ltibia 26.1731
lfoot -8.72011 -0.10616
ltoes -3.20288
287
root -6.54867 17.8769 4.94047 433.14 -85.374 -428.415
lowerback 0.496529 2.544 2.65486
upperback -0.821051 3.41702 1.69767
thorax -1.06802 1.6844 0.208042
lowerneck -12.4396 4.37897 1.29318
upperneck 18.1082 4.07954 7.43724
head 7.49794 2.66078 2.62395
rclavicle 3.69864e-014 2.04748e-014
rhumerus -31.4014 -20.8786 -65.6183
rradius 20.8026
rwrist 15.8871
rhand -13.0806 -23.4162
rfingers 7.12502
rthumb 13.0155 -52.9901
lclavicle 3.69864e-014 2.04748e-014
lhumerus -48.5271 18.1981 77.6061
lradius 16.9793
lwrist -35.7696
lhand 6.2901 11.6929
lfingers 7.12502
lthumb 31.5997 38.9783
rfemur -15.0467 -9.52777 24.1078
rtibia 62.4788
rfoot 7.72179 -26.9745
rtoes 13.7515
lfemur -19.0169 -2.4273 -14.829
ltibia 25.7698
lfoot -9.0402 -0.0735885
ltoes -3.26357
288
root -6.69159 17.8925 4.95313 430.929 -85.4099 -426.265
lowerback 0.484351 2.51643 2.59721
upperback -0.852922 3.38019 1.71448
thorax -1.09875 1.66604 0.257272
lowerneck -12.5506 4.32906 1.25816
upperneck 18.4701 4.01452 7.31389
head 7.64053 2.62259 2.59673
rclavicle -1.85242e-014 -1.74931e-014
rhumerus -31.7656 -22.4827 -64.7908
rradius 19.7327
rwrist 17.7079
rhand -12.967 -23.3845
rfingers 7.12502
rthumb 13.125 -52.9514
lclavicle -1.85242e-014 -1.74931e-014
lhumerus -47.7551 19.288 75.9074
lradius 16.4463
lwrist -37.5771
lhand 3.28164 12.4054
lfingers 7.12502
lthumb 28.7296 40.2153
rfemur -16.2022 -10.0218 24.0373
rtibia 63.306
rfoot 7.03217 -26.6152
rtoes 13.661
lfemur -18.1473 -2.61877 -15.0418
ltibia 25.317
lfoot -9.33886 -0.0178315
ltoes -3.17786
289
root -6.83305 17.9085 4.96522 428.702 -85.4802 -424.083
lowerback 0.464818 2.4872 2.50131
upperback -0.890388 3.34078 1.71974
thorax -1.13251 1.64678 0.316182
lowerneck -12.6891 4.25592 1.20893
upperneck 18.8618 3.91144 7.22089
head 7.79882 2.56818 2.57944
rclavicle 4.36705e-014 4.17448e-015
rhumerus -32.1853 -24.0735 -63.9348
rradius 18.7876
rwrist 19.4359
rhand -12.8885 -23.4045
rfingers 7.12502
rthumb 13.2007 -52.9666
lclavicle 4.36705e-014 4.17448e-015
lhumerus -47.0254 20.631 74.0544
lradius 15.9782
lwrist -39.5281
lhand 0.452073 13.2873
lfingers 7.12502
lthumb 26.0233 41.5252
rfemur -17.3687 -10.4546 23.935
rtibia 63.9829
rfoot 6.33411 -26.0329
rtoes 13.2549
lfemur -17.2721 -2.80634 -15.2966
ltibia 24.8154
lfoot -9.60893 0.0583263
ltoes -2.98291
